<svg width="18" height="18" viewBox="0 0 18 18" fill="none" xmlns="http://www.w3.org/2000/svg"><path d="M10.0574 15.5923L8.99992 16.2748C8.01742 16.8823 6.65242 16.1998 6.65242 14.9848V10.9723C6.65242 10.4398 6.35242 9.75732 6.04492 9.38232L3.16492 6.35229C2.78242 5.96979 2.48242 5.29483 2.48242 4.83733V3.09732C2.48242 2.18982 3.16492 1.50732 3.99742 1.50732H14.0024C14.8349 1.50732 15.5174 2.18984 15.5174 3.02234V4.68732C15.5174 5.29482 15.1349 6.05232 14.7599 6.42732" stroke="#292D32" stroke-width="1.5" stroke-miterlimit="10" stroke-linecap="round" stroke-linejoin="round"></path><path d="M16.2227 11.0625C16.2227 11.73 16.0352 12.36 15.7052 12.9C15.0902 13.935 13.9577 14.625 12.6602 14.625C11.3627 14.625 10.2302 13.9275 9.61516 12.9C9.28516 12.3675 9.09766 11.73 9.09766 11.0625C9.09766 9.0975 10.6952 7.5 12.6602 7.5C14.6252 7.5 16.2227 9.0975 16.2227 11.0625Z" stroke="#292D32" stroke-width="1.5" stroke-miterlimit="10" stroke-linecap="round" stroke-linejoin="round"></path><path d="M13.6125 11.9924L11.73 10.1099" stroke="#292D32" stroke-width="1.5" stroke-miterlimit="10" stroke-linecap="round" stroke-linejoin="round"></path><path d="M13.5973 10.1323L11.7148 12.0148" stroke="#292D32" stroke-width="1.5" stroke-miterlimit="10" stroke-linecap="round" stroke-linejoin="round"></path><path d="M15.5174 3.01501V4.67999C15.5174 5.28749 15.1349 6.04501 14.7599 6.42751L13.4399 7.59C13.1924 7.53 12.9299 7.5 12.6599 7.5C10.6949 7.5 9.09742 9.0975 9.09742 11.0625C9.09742 11.73 9.28492 12.36 9.61492 12.9C9.89242 13.365 10.2749 13.7625 10.7399 14.0475V14.3025C10.7399 14.76 10.4399 15.3675 10.0574 15.5925L8.99992 16.275C8.01742 16.8825 6.65242 16.2 6.65242 14.985V10.9725C6.65242 10.44 6.34492 9.75751 6.04492 9.38251L3.16492 6.35248C2.78992 5.96998 2.48242 5.28751 2.48242 4.83751V3.09C2.48242 2.1825 3.16492 1.5 3.99742 1.5H14.0024C14.8349 1.5 15.5174 2.18251 15.5174 3.01501Z" stroke="#292D32" stroke-width="1.5" stroke-miterlimit="10" stroke-linecap="round" stroke-linejoin="round"></path></svg>
