<svg width="18" height="18" viewBox="0 0 18 18" fill="none" xmlns="http://www.w3.org/2000/svg"><path d="M9 16.5H12.75C15 16.5 16.5 15 16.5 12.75V9C16.5 6.975 15.225 5.475 13.35 5.25C13.2 5.25 12.975 5.25 12.75 5.25H5.25C5.025 5.25 4.875 5.24998 4.65 5.32498C2.7 5.54998 1.5 6.975 1.5 9C1.5 9.225 1.5 9.525 1.5 9.75" stroke="#292D32" stroke-width="1.5" stroke-linecap="round" stroke-linejoin="round"></path><path d="M13.3499 5.2499C13.1999 5.2499 12.9749 5.2499 12.7499 5.2499H5.2499C5.0249 5.2499 4.8749 5.24988 4.6499 5.32488C4.7249 5.09988 4.87491 4.94989 5.09991 4.72489L7.4999 2.2499C8.5499 1.1999 10.1999 1.1999 11.2499 2.2499L12.5999 3.59989C13.0499 4.04989 13.2749 4.6499 13.3499 5.2499Z" stroke="#292D32" stroke-width="1.5" stroke-linecap="round" stroke-linejoin="round"></path><path d="M16.5 9.375H14.25C13.425 9.375 12.75 10.05 12.75 10.875C12.75 11.7 13.425 12.375 14.25 12.375H16.5" stroke="#292D32" stroke-width="1.5" stroke-linecap="round" stroke-linejoin="round"></path><path d="M4.35118 16.05C5.67868 16.05 6.75117 14.9775 6.75117 13.65C6.75117 12.3225 5.67868 11.25 4.35118 11.25C3.02368 11.25 1.95117 12.3225 1.95117 13.65C1.95117 14.9775 3.02368 16.05 4.35118 16.05Z" stroke="#292D32" stroke-width="1.5" stroke-linecap="round" stroke-linejoin="round"></path><path d="M1.5 16.5L2.25 15.75" stroke="#292D32" stroke-width="1.5" stroke-linecap="round" stroke-linejoin="round"></path></svg>
